<?xml version="1.0" encoding="utf-8"?>
<!-- Generator: Adobe Illustrator 19.2.1, SVG Export Plug-In . SVG Version: 6.00 Build 0)  -->
<svg version="1.1" id="beer" xmlns="http://www.w3.org/2000/svg" xmlns:xlink="http://www.w3.org/1999/xlink" x="0px" y="0px"
	 viewBox="0 0 800 525" style="enable-background:new 0 0 800 525;" xml:space="preserve">
<style type="text/css">
	.st0{fill:#F9B233;}
	.st1{fill-rule:evenodd;clip-rule:evenodd;fill:#F18C04;}
	.st2{fill-rule:evenodd;clip-rule:evenodd;fill:#B67A00;}
</style>
<g id="naranja">
	<polygon id="fondo" class="st0" points="692,429 0.8,525 101,85.2 799.7,-2.5 	"/>
	<rect x="79" y="38" class="st0" width="656" height="464"/>
</g>
<g id="cerveza2">
	<path class="st1" d="M465.3,61.4c9.1,6.8,22,4.9,28.8-4.3c6.8-9.1,4.9-22-4.2-28.8c-9.1-6.8-22-4.9-28.8,4.2
		C454.2,41.7,456.1,54.6,465.3,61.4z M468.6,37.7c3.9-5.3,11.3-6.4,16.6-2.4c5.3,3.9,6.4,11.3,2.5,16.6c-3.9,5.3-11.3,6.4-16.6,2.5
		C465.8,50.4,464.7,42.9,468.6,37.7z"/>
	<path class="st1" d="M550.3,90c9.1,6.8,22,4.9,28.8-4.3c6.8-9.1,4.9-22-4.3-28.8c-9.1-6.8-22-4.9-28.8,4.2
		C539.3,70.3,541.2,83.2,550.3,90z M553.7,66.3c3.9-5.3,11.3-6.4,16.6-2.4c5.3,3.9,6.4,11.3,2.5,16.6c-3.9,5.3-11.3,6.4-16.6,2.5
		C550.9,79,549.8,71.6,553.7,66.3z"/>
	<path class="st1" d="M587.2,142c11.2,7.6,26.4,4.7,34-6.4c7.6-11.2,4.7-26.4-6.4-34c-11.2-7.6-26.4-4.7-34,6.4
		C573.2,119.2,576,134.4,587.2,142z M591.3,114.6c4.4-6.4,13.2-8.1,19.6-3.7c6.4,4.4,8.1,13.2,3.7,19.6c-4.4,6.4-13.2,8.1-19.6,3.7
		C588.6,129.8,586.9,121.1,591.3,114.6z"/>
	<path class="st1" d="M615.3,335.8c9.2-14.9,30.9-49.8,28.3-76.2c-2.8-28.7-17-45-28.4-58.1c-1.8-2.1-3.5-4.1-5.2-6
		c-7.2-8.8-16.3-13.4-26.3-13.5c-6.6-0.1-13.2,1.8-19.9,5.5l-9,5c-1.6-5.9-4-14.4-6.3-22.8c4.2-5.8,6.3-13.2,5.5-21.1
		c-0.9-8.2-4.9-15.3-10.6-20.1c3.4-4.6,5.1-10.5,4.5-16.7c-1.4-12.9-12.4-22.2-24.7-20.9c-1.9,0.2-3.6,0.7-5.3,1.3
		c-4.9-2.3-10.4-3.4-16.1-2.8c-1.4,0.1-2.8,0.4-4.1,0.8c-6.4-9.9-17.6-15.9-29.6-14.6c-3.6,0.4-6.9,1.4-10,2.9
		c-6.1-11.1-18-18-30.8-16.6c-16.1,1.7-28.1,15.9-28.1,32.5c-2.1-0.2-4.3-0.2-6.5,0c-12.3,1.3-22.2,9.9-26.2,21.2
		c-1.7-0.1-3.5-0.1-5.3,0.1c-1.1,0.1-2.2,0.3-3.3,0.5c-0.8,0-1.6,0.1-2.3,0.1c-17.4,1.8-29.9,18.1-27.9,36.3
		c0.6,5.3,2.3,10.2,5,14.4c-1.5,0.7-3,1.5-4.4,2.4c-4.7,1.8-8.7,5-11.4,9c-6,6.3-9.3,15.3-8.3,24.9c1.8,16.8,16.2,29.1,32.3,27.4
		c6.1-0.6,11.5-3.2,15.8-7c3.9,4.2,8.7,7.4,14.1,9.2c16.5,36.2,72,157.4,82.8,173.1c18.4,26.7,26,37.7,42,37.9c0,0,0,0,0,0
		c8.2,0.1,18.1-3,33.1-7.7c48-15,74.8-29.2,84.5-44.8c8.1-13,3.5-42.7,0.5-52.7C614,337.8,614.7,336.8,615.3,335.8z M578.8,210.6
		c0.2,0,0.3,0,0.4,0c5.7,2.4,30.3,29.8,32.1,45.3c1.3,11.4-6.6,31.3-13,43.5l-34-83.8C569.4,213,575.6,210.5,578.8,210.6z"/>
</g>
<g id="cerveza1">
	<path class="st2" d="M269.7,111.7c8.7-6.4,10.7-18.6,4.3-27.3c-6.3-8.7-18.6-10.7-27.3-4.3c-8.7,6.3-10.7,18.6-4.3,27.3
		C248.7,116.1,260.9,118,269.7,111.7z M250.9,86.7c5-3.7,12.1-2.6,15.7,2.5c3.7,5,2.5,12.1-2.5,15.8c-5,3.7-12.1,2.5-15.8-2.5
		C244.8,97.4,245.9,90.3,250.9,86.7z"/>
	<path class="st2" d="M223.4,168.6c8.7-6.4,10.7-18.6,4.3-27.3c-6.3-8.7-18.6-10.7-27.3-4.3c-8.7,6.3-10.7,18.6-4.3,27.3
		C202.5,173,214.7,174.9,223.4,168.6z M204.7,143.6c5-3.7,12.1-2.6,15.7,2.5c3.7,5,2.5,12.1-2.5,15.8c-5,3.7-12.1,2.5-15.8-2.5
		C198.5,154.3,199.7,147.2,204.7,143.6z"/>
	<path class="st2" d="M168.8,138.8c-5-7.5-15.1-9.5-22.6-4.5c-7.5,5-9.5,15.1-4.5,22.6c5,7.5,15.1,9.5,22.6,4.5
		C171.7,156.4,173.7,146.3,168.8,138.8z M159.1,156.1c-4.3,2.9-10.1,1.7-13-2.6c-2.9-4.3-1.7-10.2,2.6-13c4.3-2.9,10.2-1.7,13,2.6
		C164.6,147.4,163.4,153.2,159.1,156.1z"/>
	<path class="st2" d="M472.3,212.2c-2.6-3.9-6.3-7-10.8-8.7c-1.3-0.9-2.7-1.7-4.1-2.3c2.5-4,4.3-8.6,4.8-13.7
		c2-17.3-9.7-32.8-26.2-34.8c-0.7-0.1-1.5-0.1-2.2-0.2c-1-0.2-2-0.4-3.1-0.5c-1.7-0.2-3.4-0.2-5-0.1c-3.7-10.8-13-19.1-24.7-20.5
		c-2.1-0.2-4.2-0.2-6.2,0c0.1-15.8-11.1-29.4-26.4-31.1c-12.2-1.4-23.6,5.1-29.5,15.5c-2.9-1.4-6.1-2.4-9.5-2.8
		c-11.4-1.3-22.1,4.3-28.3,13.6c-1.3-0.3-2.6-0.6-3.9-0.8c-5.4-0.6-10.7,0.3-15.4,2.5c-1.6-0.6-3.3-1.1-5-1.3
		c-11.7-1.4-22.2,7.5-23.7,19.7c-0.7,5.9,0.9,11.5,4.1,15.9c-5.5,4.5-9.3,11.2-10.2,19c-0.9,7.4,1.1,14.5,5,20.1
		c-2.3,8-4.6,16-6.2,21.6l-8.5-4.8c-6.3-3.6-12.6-5.4-18.8-5.4c-9.5,0-18.2,4.4-25.2,12.6c-1.6,1.9-3.2,3.7-5,5.7
		c-10.9,12.3-24.6,27.7-27.5,54.9c-2.7,25.1,17.5,58.5,26.2,72.7c0.6,0.9,1.2,1.9,1.7,2.8c-2.9,9.5-7.6,37.7,0,50.1
		c9,14.8,34.4,28.6,79.9,43.4c14.2,4.6,23.5,7.6,31.4,7.6c0,0,0,0,0,0c15.2,0,22.5-10.4,40.3-35.6c10.4-14.8,64.3-129.5,80.4-163.7
		c5.2-1.7,9.8-4.7,13.5-8.6c4.1,3.7,9.2,6.2,15,6.8c15.2,1.8,29.1-9.7,30.9-25.7C481.1,226.9,478,218.3,472.3,212.2z M191.6,283.1
		c1.8-14.7,25.5-40.5,31-42.7c0.1,0,0.2,0,0.3,0c3.1,0,8.9,2.4,13.8,4.9l-33.2,79.3C197.6,312.9,190.3,294,191.6,283.1z"/>
</g>
</svg>
